# xmcd
#
# Track frame offsets:
#        150
#        33233
#        51753
#        78475
#        106253
#        137030
#        155370
#        192655
#        216610
#        237695
#        266813
#        285355
#
# Disc length: 4076 seconds
#
# Revision: 0
# Processed by: cddbd v1.5PL3 Copyright (c) Steve Scherf et al.
# Submitted via: ExactAudioCopy v0.95a5
#
DISCID=b40fea0c
DTITLE=Soft Ballet - Alter Ego [ALCA-423]
DYEAR=1992
DGENRE=Electronic
TTITLE0=Ego Dance (Fortran 5 Remix)
TTITLE1=Body To Body (808 State Remix)
TTITLE2=Final (Graham Bonnet Remix)
TTITLE3=Twist Of Love (Nightmares On Wax Remix)
TTITLE4=Brilliant Fault And Sky Was Blue (LFO Remix)
TTITLE5=Texture (Jah Wobble Remix)
TTITLE6=(Trip The) Needle (Part 1 and 2) (Adrian Sherwood Remix)
TTITLE7=No Pleasure (The Grid Remix)
TTITLE8=America (Renegade Soundwave Remix)
TTITLE9=Midara (Cabaret Voltaire Remix)
TTITLE10=Body To Body (808 State's Vox Mix)
TTITLE11=Brilliant Fault And Sky Was Blue (LFO Remix Ambient Version)
EXTD=
EXTT0=
EXTT1=
EXTT2=
EXTT3=
EXTT4=
EXTT5=
EXTT6=
EXTT7=
EXTT8=
EXTT9=
EXTT10=
EXTT11=
PLAYORDER=
